<?xml version="1.0" encoding="utf-8"?>
<!-- Generator: Adobe Illustrator 23.0.0, SVG Export Plug-In . SVG Version: 6.00 Build 0)  -->
<svg version="1.1" id="图层_1" xmlns="http://www.w3.org/2000/svg" xmlns:xlink="http://www.w3.org/1999/xlink" x="0px" y="0px"
	 viewBox="0 0 200 200" style="enable-background:new 0 0 200 200;" xml:space="preserve">
<style type="text/css">
	.st0{fill:#FFFFFF;}
</style>
<path class="st0" d="M133.3,90.9c0,3.3,2.2,5.4,5.4,5.4s5.4-2.2,5.4-5.4c-0.1-18-14.6-32.5-32.6-32.6c-3.3,0-5.4,2.2-5.4,5.4
	c0,3.3,2.2,5.4,5.4,5.4C123.5,69.2,133.2,78.9,133.3,90.9z M155,90.9c0,3.3,2.2,5.4,5.4,5.4s5.4-2.2,5.4-5.4
	c0-29.9-24.5-54.3-54.3-54.3c-3.3,0-5.4,2.2-5.4,5.4c0,3.3,2.2,5.4,5.4,5.4C135.4,47.4,155,67,155,90.9L155,90.9z M81.6,71.9
	c6-6,6.5-15.2,1.1-21.7L65.9,28.9c-5.4-7.1-15.8-8.2-22.8-2.7c-0.5,0.5-1.1,0.5-1.1,1.1L27.3,42c-14.1,14.1,6,52.2,42.4,88.6
	c36.4,36.4,73.9,56,88,42.4l14.7-14.7c6.5-6.5,6.5-16.8,0-22.8l-1.1-1.1l-21.2-16.8c-6.5-5.4-15.7-4.9-21.7,1.1l-9.2,9.2
	c-9.8-6-18.5-12.5-26.1-20.1c-7.6-7.6-14.1-16.3-20.1-26.1L81.6,71.9L81.6,71.9z M74,57.2c1.6,2.2,1.6,5.4-0.5,7.1l-12,12.5
	c-1.7,1.7-2.1,4.3-1.1,6.5c6.4,11.8,14.5,22.6,23.9,32.1c9.5,9.5,20.3,17.5,32.1,23.9c2.2,1,4.8,0.6,6.5-1.1l12.5-12.5
	c2.2-2.2,4.9-2.2,7.1-0.5l21.2,17.4c0,0,0.5,0,0.5,0.5c2.1,2,2.2,5.3,0.2,7.4c-0.1,0.1-0.1,0.1-0.2,0.2l-14.7,14.7
	c-7.1,7.1-40.7-10.9-72.8-42.4C44.7,91.4,27.3,57.2,34.4,50.1l15.2-15.2c2.2-1.6,6-1.6,7.6,1.1L74,57.2L74,57.2z"/>
</svg>
