<svg xmlns="http://www.w3.org/2000/svg" width="39.97" height="31.59" viewBox="0 0 39.97 31.59">
  <defs>
    <style>
      .cls-1 {
        fill: #fff;
        fill-rule: evenodd;
      }
    </style>
  </defs>
  <path id="形状_10" data-name="形状 10" class="cls-1" d="M1236.7,2511.44h0.03a19.343,19.343,0,0,0,7.59-1.55,13.5,13.5,0,0,0,4.41-2.91,13.894,13.894,0,0,0,2.9-4.43,19.627,19.627,0,0,0,1.54-7.62v-0.03l-0.03-1.45-1.44-.03h-0.03a19.343,19.343,0,0,0-7.59,1.55,13.057,13.057,0,0,0-7.31,7.34,19.627,19.627,0,0,0-1.54,7.62v0.03l0.03,1.45,1.44,0.03h0Zm0.05-3.01,1.48,1.48h0a16.772,16.772,0,0,1,1.3-6.43,10.8,10.8,0,0,1,2.26-3.47,10.945,10.945,0,0,1,3.46-2.27,16.781,16.781,0,0,1,6.39-1.31h0l-1.47-1.48v0.01a16.762,16.762,0,0,1-1.3,6.42,10.1,10.1,0,0,1-5.72,5.74,16.407,16.407,0,0,1-6.39,1.31h-0.01Zm-7,3.01,1.3-.09,0.09-1.31c0-.06,0-0.06.01-0.25a20,20,0,0,0-1.12-7.47,12.09,12.09,0,0,0-7.75-7.78,20.053,20.053,0,0,0-7.44-1.13c-0.19.01-.19,0.01-0.25,0.01l-1.29.1-0.1,1.3c0,0.06,0,.06-0.01.25a20.39,20.39,0,0,0,1.12,7.47,12.134,12.134,0,0,0,7.75,7.79,20.267,20.267,0,0,0,7.44,1.12c0.19-.01.19-0.01,0.25-0.01h0Zm-0.21-3h-0.15a17.042,17.042,0,0,1-6.31-.95,9.735,9.735,0,0,1-3.7-2.25,9.9,9.9,0,0,1-2.25-3.72,17.36,17.36,0,0,1-.94-6.33v-0.16l-1.38,1.4,0.15-.01a17.1,17.1,0,0,1,6.31.95,9.076,9.076,0,0,1,5.94,5.97,17.4,17.4,0,0,1,.95,6.34c-0.01.14-.01,0.14-0.01,0.15l1.39-1.39h0Zm2.22,9.04v6.02a1.5,1.5,0,1,0,3,0v-6.02A1.5,1.5,0,0,0,1231.76,2517.48Z" transform="translate(-1213.19 -2493.41)"/>
</svg>
