<svg xmlns="http://www.w3.org/2000/svg" width="41.75" height="37.68" viewBox="0 0 41.75 37.68">
  <defs>
    <style>
      .cls-1 {
        fill: #fff;
        fill-rule: evenodd;
      }
    </style>
  </defs>
  <path id="形状_9" data-name="形状 9" class="cls-1" d="M1247.39,2621.39a1.165,1.165,0,0,1-.65-2.13c2.8-1.9,5.83-6.19,5.83-9.8a10.482,10.482,0,0,0-10.44-10.48,10.373,10.373,0,0,0-7.31,3.01,1.153,1.153,0,0,1-1.63,0,10.355,10.355,0,0,0-7.31-3.01,10.491,10.491,0,0,0-4.67,19.86,1.163,1.163,0,0,1-1.04,2.08A12.793,12.793,0,1,1,1234,2599.6a12.582,12.582,0,0,1,8.12-2.94,12.793,12.793,0,0,1,12.76,12.81c0,4.43-3.48,9.44-6.85,11.72a1.127,1.127,0,0,1-.64.2h0Zm-1.87,3.97a3.556,3.556,0,0,1-2.53-1.05l-4.42-4.44a1.177,1.177,0,0,1,0-1.65,1.165,1.165,0,0,1,1.64,0l4.43,4.44a1.259,1.259,0,1,0,1.78-1.78l-12.71-12.39a1.168,1.168,0,0,1-.02-1.65,1.156,1.156,0,0,1,1.64-.03l12.72,12.41a3.609,3.609,0,0,1,0,5.09,3.522,3.522,0,0,1-2.53,1.05h0Zm-2.99,3.9a3.618,3.618,0,0,1-2.53-1.05l-2.25-2.28a1.177,1.177,0,0,1,0-1.65,1.165,1.165,0,0,1,1.64,0l2.26,2.27a1.244,1.244,0,0,0,1.78,0,1.243,1.243,0,0,0,0-1.77l-6-6.03a1.177,1.177,0,0,1,0-1.65,1.147,1.147,0,0,1,1.64,0l6,6.03A3.6,3.6,0,0,1,1242.53,2629.26Zm-19.83-5.21a3.59,3.59,0,0,1-2.53-6.13l3.82-3.82a3.645,3.645,0,0,1,5.05,0,3.585,3.585,0,0,1,0,5.07l-3.81,3.82a3.508,3.508,0,0,1-2.53,1.06h0Zm3.82-8.68a1.24,1.24,0,0,0-.89.37l-3.81,3.83a1.261,1.261,0,0,0,0,1.78,1.28,1.28,0,0,0,1.78,0l3.81-3.82a1.247,1.247,0,0,0,.36-0.89,1.29,1.29,0,0,0-.36-0.89A1.243,1.243,0,0,0,1226.52,2615.37Zm-0.4,12.11a3.585,3.585,0,0,1-2.53-6.12l3.81-3.83a3.648,3.648,0,0,1,5.06,0,3.6,3.6,0,0,1,0,5.07l-3.82,3.83a3.54,3.54,0,0,1-2.52,1.05h0Zm3.81-8.68a1.24,1.24,0,0,0-.89.37l-3.81,3.82a1.262,1.262,0,1,0,1.78,1.79l3.81-3.82a1.274,1.274,0,0,0,0-1.79A1.24,1.24,0,0,0,1229.93,2618.8Zm-0.39,12.11a3.59,3.59,0,0,1-2.53-6.13l3.81-3.82a3.648,3.648,0,0,1,5.06,0,3.6,3.6,0,0,1,0,5.07l-3.82,3.83A3.516,3.516,0,0,1,1229.54,2630.91Zm3.8-8.68a1.234,1.234,0,0,0-.88.37l-3.82,3.82a1.262,1.262,0,0,0,1.78,1.79l3.82-3.83a1.28,1.28,0,0,0,0-1.78A1.263,1.263,0,0,0,1233.34,2622.23Zm-0.39,12.11a3.59,3.59,0,0,1-2.53-6.13l3.82-3.82a3.645,3.645,0,0,1,5.05,0,3.6,3.6,0,0,1,0,5.08l-3.81,3.82A3.539,3.539,0,0,1,1232.95,2634.34Zm3.82-8.68a1.24,1.24,0,0,0-.89.37l-3.82,3.83a1.259,1.259,0,1,0,1.78,1.78l3.81-3.82a1.274,1.274,0,0,0,0-1.79,1.234,1.234,0,0,0-.88-0.37h0Zm-8.18-12.48a3.59,3.59,0,0,1-2.53-6.13l7.15-6.73a1.157,1.157,0,0,1,1.64.05,1.178,1.178,0,0,1-.06,1.65l-7.12,6.7a1.266,1.266,0,0,0,.03,1.76,1.28,1.28,0,0,0,1.78,0l4.29-3.71a1.16,1.16,0,1,1,1.51,1.76l-4.22,3.66a3.535,3.535,0,0,1-2.47.99h0Z" transform="translate(-1213.13 -2596.66)"/>
</svg>
