<svg xmlns="http://www.w3.org/2000/svg" width="57.62" height="69.375" viewBox="0 0 57.62 69.375">
  <defs>
    <style>
      .cls-1 {
        fill: #fff;
        fill-rule: evenodd;
      }
    </style>
  </defs>
  <path id="形状_9" data-name="形状 9" class="cls-1" d="M1183,740.391a9.86,9.86,0,0,0,0,19.719v-4.34a5.52,5.52,0,1,1,5.51-5.609h4.34A9.869,9.869,0,0,0,1183,740.391Zm22.85,8.223h-4.35c0.05,0.54.08,1.084,0.08,1.636A18.58,18.58,0,1,1,1183,731.66c0.36,0,.73.013,1.08,0.034v-4.346c-0.36-.017-0.72-0.028-1.08-0.028a22.93,22.93,0,1,0,22.91,22.93C1205.91,749.7,1205.89,749.155,1205.85,748.614Zm-11.86-10.6-1.53,1.532-1.54,1.542a12.05,12.05,0,1,1-15.84,0l-1.54-1.542-1.53-1.532A16.38,16.38,0,1,0,1193.99,738.015Zm-39.78,48.9h18.86v1.3l-3.02.757v-0.97h-12.82v0.417l-3.03.686Zm16.54,7.54-0.33.783h3.04l-0.92,1.429H1154.2V795.24h2.84l-0.25-.783h3.05l0.27,0.783h7.28l0.36-.783h3Zm-8.57-10.187v-0.925h-7.94v-1.366h7.94V781.2h2.72v0.783h8.47l-0.84,1.366h-7.63v0.925h8.16l-0.92,1.446h-17.47V784.27h7.51Zm-7.37,6.775h18.08v1.82l-3,.957h-15.08v-2.777Zm0.02-1.855h18.25l-0.81,1.17h-17.44v-1.17Zm2.4,2.936v0.694h12.34v-0.694h-12.34Zm26.81-8.664-4.22,5.994-0.03,6.048,4.16,0.009-0.02,1.167-6.12-.009v-6.352h-1.33l4.99-6.857-3.84.022,0.01,1.377-1.79,1.276,0.07-4.166h6.63l0.53-.775h2.41l-0.5.775h7.65l-0.07,3.231-1.79.592v-2.31Zm2.86,6.418,3.02-3.171,2.66-.408-5.25,5.434,1.06,3.649h4.54l-1.34,1.287h-4.75l-2.91-10.442h1.89Zm8.84-.1,1.85-.01v5.8l-1.83,1.112Zm8.86,1.516-1.29,5.385h-1.73l1.3-5.385h1.72Zm2.72-8.772h3.5l0.98-1.327h-12.64V796.68l1.6-.867v-13.29h3.92l-0.39.88h-2.46v7.314h3.65v4.194h-0.89v1.769h1.37l1.1-1.8,0.02-4.159,1.56,0.018,2.46-2.081,0.02-5.251h-4.2Zm1.91,2.216V789.4h-5.5v-1.761h3.82l0.98-1.038h-4.8v-1.862h5.5Zm0.48,6.556,0.97,5.385h-1.73l-0.96-5.385h1.72Zm-11.81-8.984a1.322,1.322,0,1,1-1.31-1.112A1.219,1.219,0,0,1,1197.9,782.311Zm0,4.278a1.322,1.322,0,1,1-1.31-1.112A1.22,1.22,0,0,1,1197.9,786.589Z" transform="translate(-1154.19 -727.313)"/>
</svg>
