<?xml version="1.0" standalone="no"?><!DOCTYPE svg PUBLIC "-//W3C//DTD SVG 1.1//EN" "http://www.w3.org/Graphics/SVG/1.1/DTD/svg11.dtd"><svg t="1600653881105" class="icon" viewBox="0 0 1026 1024" version="1.1" xmlns="http://www.w3.org/2000/svg" p-id="4777" xmlns:xlink="http://www.w3.org/1999/xlink" width="200.390625" height="200"><defs><style type="text/css"></style></defs><path d="M944.9 255.5c-4.5-22.5-18.45-36-41.85-39.6-0.45 0-0.9-0.45-1.35-0.45-0.45 0-0.9-0.45-1.35-0.45l-0.9-0.45H159.2c-11.25 0-21.6 1.35-31.5 4.05l-1.35 0.45c-27.9 8.55-46.8 33.75-46.8 61.65v441.45c0 17.55 5.85 35.1 16.65 49.05 0.9 1.35 2.25 2.7 3.6 4.5l0.45 0.45 0.9 0.9c17.1 18.45 41.85 29.25 67.95 29.25h702c35.55 0 66.6-24.3 73.8-57.6l0.45-1.35v-0.45c0.9-4.95 1.8-9.9 1.8-14.4V268.1c-0.9-3.6-1.35-7.65-2.25-12.6zM362.6 505.7L278 581.75c-48.6 43.65-97.2 86.85-145.8 130.95V318.05L362.6 505.7z m302.85-0.9c76.5-62.1 152.1-123.75 228.6-185.85V705.5l-95.85-84.15c-44.55-39.15-88.65-77.85-132.75-116.55zM301.4 629.45L402.65 539c17.1 13.95 33.75 27.45 50.4 40.95 9.45 7.65 18.9 15.3 27.9 22.95l12.15 9.9c13.05 10.8 25.2 10.8 38.7 0 30.6-24.75 61.2-49.95 92.7-75.15l55.8 49.05C744.2 642.95 807.65 698.75 872 755H161.9c46.8-42.3 93.15-83.7 139.5-125.55z m211.5-67.5c-79.2-64.35-157.95-128.7-237.15-193.5L151.1 266.75c54.45-1.8 292.95-3.15 495-3.15 117.45 0 199.35 0.45 232.2 1.35l-365.4 297z" fill="#ffffff" p-id="4778"></path></svg>