<?xml version="1.0" standalone="no"?><!DOCTYPE svg PUBLIC "-//W3C//DTD SVG 1.1//EN" "http://www.w3.org/Graphics/SVG/1.1/DTD/svg11.dtd"><svg t="1600653860636" class="icon" viewBox="0 0 1024 1024" version="1.1" xmlns="http://www.w3.org/2000/svg" p-id="3977" xmlns:xlink="http://www.w3.org/1999/xlink" width="200" height="200"><defs><style type="text/css"></style></defs><path d="M499.394731 949.182362 499.394731 949.182362C496.358951 945.21689 493.15358 941.0112 489.794406 936.580422 491.033807 935.003373 492.363692 933.307098 493.780988 931.494554 505.162163 916.939475 517.870871 900.37305 531.571601 882.119053 570.724294 829.954451 609.872985 774.864896 646.310784 719.499014 672.35145 679.9312 696.031674 641.668499 716.797286 605.285582 773.840781 505.341086 805.50311 424.726789 805.50311 378.445514 805.50311 224.50967 683.174099 100.167012 532.83506 100.167012 382.496024 100.167012 260.167012 224.50967 260.167012 378.445514 260.167012 424.726789 291.82934 505.341086 348.872835 605.285582 369.638448 641.668499 393.318673 679.9312 419.359334 719.499014 455.797135 774.864896 494.945825 829.954451 534.098519 882.119053 547.799249 900.37305 560.507958 916.939475 571.889132 931.494554 573.306428 933.307098 574.636314 935.003373 575.875715 936.580422 572.51654 941.0112 569.311169 945.21689 566.275389 949.182362L499.394731 949.182362ZM532.83506 992 532.83506 992C532.83506 992 192 569.782088 192 378.445514 192 187.10894 344.597054 32 532.83506 32 721.073069 32 873.670118 187.10894 873.670118 378.445514 873.670118 569.782088 532.83506 992 532.83506 992L532.83506 992ZM532.83506 546.618862C626.954063 546.618862 703.252589 470.320335 703.252589 376.201332 703.252589 282.08233 626.954063 205.783802 532.83506 205.783802 438.716057 205.783802 362.41753 282.08233 362.41753 376.201332 362.41753 470.320335 438.716057 546.618862 532.83506 546.618862L532.83506 546.618862ZM532.83506 478.45185C476.363658 478.45185 430.584542 432.672734 430.584542 376.201332 430.584542 319.72993 476.363658 273.950814 532.83506 273.950814 589.306462 273.950814 635.085578 319.72993 635.085578 376.201332 635.085578 432.672734 589.306462 478.45185 532.83506 478.45185L532.83506 478.45185Z" p-id="3978" fill="#ffffff"></path></svg>